<?xml version="1.0" encoding="utf-8"?>
<!-- Generator: Adobe Illustrator 22.0.0, SVG Export Plug-In . SVG Version: 6.00 Build 0)  -->
<svg version="1.1" id="selected" xmlns="http://www.w3.org/2000/svg" xmlns:xlink="http://www.w3.org/1999/xlink" x="0px" y="0px"
	 viewBox="0 0 886.8 503" style="enable-background:new 0 0 886.8 503;" xml:space="preserve">
<style type="text/css">
	.st0{fill:#F99D1C;}
	.st1{fill:url(#SVGID_1_);}
	.st2{fill:url(#SVGID_2_);}
	.st3{fill:url(#SVGID_3_);}
	.st4{fill:url(#SVGID_4_);}
</style>
<g>
	<path class="st0" d="M77.6,14.9c3.5,1.8,6.2,4.4,8.3,7.6c2,3.2,3.1,6.9,3.1,10.9c0,3.8-1,7.2-3.1,10.2c-2,3-4.8,5.3-8.2,7
		c5,1.4,8.9,3.8,11.7,7.4c2.9,3.6,4.3,8,4.3,13.4c0,4.8-1.1,9.1-3.3,12.9c-2.2,3.8-5.3,6.7-9.2,8.8c-3.9,2.1-8.4,3.2-13.4,3.2H40.3
		c-1.4,0-2.6-0.4-3.4-1.1s-1.3-1.8-1.3-3.1V16.3c0-1.2,0.4-2.2,1.2-3c0.8-0.8,1.8-1.2,3-1.2h26.2C70.2,12.1,74.1,13,77.6,14.9z
		 M76.6,43.5c2.8-2.5,4.1-5.9,4.1-10.2c0-4.2-1.4-7.4-4.1-9.7c-2.7-2.3-6.3-3.4-10.8-3.4H44v27h22C70.3,47.2,73.9,46,76.6,43.5z
		 M80.5,83.5c3.3-3,4.9-7.1,4.9-12.2c0-4.9-1.6-8.8-4.9-11.7c-3.3-2.9-7.5-4.4-12.8-4.4H44v32.8h23.8C73,88.1,77.2,86.6,80.5,83.5z"
		/>
	<path class="st0" d="M144.3,40.7c4.6,2.6,8.1,6.2,10.8,10.8c2.6,4.6,3.9,9.7,3.9,15.3v25.3c0,1.1-0.4,2.1-1.2,2.9
		c-0.8,0.8-1.8,1.2-3,1.2c-1.2,0-2.2-0.4-3-1.1c-0.8-0.8-1.2-1.7-1.2-3v-6.5c-2.5,3.4-5.7,6.2-9.6,8.1c-3.9,2-8.1,3-12.8,3
		c-5.5,0-10.4-1.3-14.8-3.9c-4.4-2.6-7.9-6.2-10.4-10.8c-2.5-4.6-3.8-9.6-3.8-15.2c0-5.6,1.3-10.7,3.9-15.3
		c2.6-4.6,6.2-8.2,10.8-10.8c4.6-2.6,9.6-3.9,15.2-3.9C134.7,36.8,139.8,38.1,144.3,40.7z M140.2,86.3c3.3-1.9,5.9-4.6,7.8-8
		c1.9-3.4,2.9-7.2,2.9-11.5c0-4.2-1-8.1-2.9-11.5c-1.9-3.4-4.5-6.1-7.8-8.1c-3.3-2-7-3-11.1-3c-4.1,0-7.8,1-11.1,3
		c-3.3,2-6,4.7-7.9,8.1c-1.9,3.4-2.9,7.2-2.9,11.5c0,4.2,1,8.1,2.9,11.5c1.9,3.4,4.5,6.1,7.9,8c3.3,1.9,7.1,2.9,11.1,2.9
		C133.2,89.2,136.9,88.2,140.2,86.3z"/>
	<path class="st0" d="M209.8,39.9c4.1,2.2,7.2,5.3,9.5,9.4c2.3,4.1,3.4,9.1,3.4,14.8v28c0,1.1-0.4,2.1-1.2,2.9
		c-0.8,0.8-1.8,1.2-2.9,1.2c-1.2,0-2.2-0.4-3-1.2c-0.8-0.8-1.2-1.8-1.2-2.9v-28c0-6.4-1.8-11.2-5.3-14.6c-3.6-3.3-8.2-5-13.9-5
		c-3.5,0-6.7,0.7-9.5,2c-2.8,1.4-5.1,3.2-6.7,5.7c-1.7,2.4-2.5,5.1-2.5,8v31.9c0,1.2-0.4,2.2-1.1,3c-0.8,0.8-1.7,1.1-3,1.1
		c-1.2,0-2.2-0.4-3-1.1c-0.8-0.8-1.2-1.7-1.2-3V41.5c0-1.2,0.4-2.2,1.2-3c0.8-0.8,1.8-1.2,3-1.2c1.2,0,2.2,0.4,3,1.2
		c0.8,0.8,1.1,1.8,1.1,3v3.7c2.4-2.7,5.2-4.7,8.6-6.2c3.4-1.5,7-2.3,11-2.3C201.2,36.7,205.7,37.7,209.8,39.9z"/>
	<path class="st0" d="M281.1,47.1c0.6,0.6,0.9,1.4,0.9,2.3c0,1.1-0.6,2.2-1.8,3c-0.6,0.4-1.3,0.6-2,0.6c-1.1,0-2.1-0.5-3.1-1.6
		c-2.2-2.4-4.5-4.1-7.1-5.3s-5.5-1.8-8.6-1.8c-3.9,0-7.5,1-10.5,2.9c-3.1,1.9-5.5,4.6-7.2,8c-1.7,3.4-2.5,7.3-2.5,11.6
		c0,4.2,0.9,8.1,2.7,11.5c1.8,3.4,4.3,6.1,7.5,8c3.2,1.9,6.9,2.9,11.1,2.9c5.7,0,10.4-1.5,13.9-4.6c0.9-0.8,1.9-1.2,2.9-1.2
		c0.9,0,1.7,0.3,2.4,0.9c1,0.9,1.5,1.8,1.5,2.9c0,0.9-0.4,1.7-1.1,2.4c-5.2,4.8-11.7,7.2-19.6,7.2c-5.6,0-10.6-1.3-15.1-3.9
		c-4.5-2.6-7.9-6.2-10.5-10.8c-2.5-4.6-3.8-9.6-3.8-15.2c0-5.7,1.2-10.9,3.7-15.4c2.4-4.6,5.8-8.1,10.1-10.7
		c4.3-2.6,9.2-3.9,14.5-3.9C268.2,36.8,275.5,40.2,281.1,47.1z"/>
	<path class="st0" d="M333.3,40.6c4.5,2.6,8.1,6.2,10.7,10.8c2.6,4.6,3.9,9.7,3.9,15.4c0,5.7-1.3,10.8-3.9,15.3
		c-2.6,4.6-6.2,8.1-10.7,10.7c-4.6,2.6-9.7,3.9-15.3,3.9c-5.7,0-10.8-1.3-15.3-3.9c-4.6-2.6-8.1-6.2-10.7-10.7
		c-2.6-4.6-3.9-9.7-3.9-15.3c0-5.7,1.3-10.8,3.9-15.4c2.6-4.6,6.2-8.2,10.7-10.8c4.6-2.6,9.7-3.9,15.3-3.9
		C323.7,36.8,328.8,38.1,333.3,40.6z M306.9,47.2c-3.3,1.9-6,4.6-7.9,8c-1.9,3.4-2.9,7.3-2.9,11.6c0,4.2,1,8.1,2.9,11.5
		c1.9,3.4,4.5,6.1,7.9,8c3.3,1.9,7.1,2.9,11.1,2.9c4.2,0,7.9-1,11.2-2.9c3.3-1.9,5.9-4.6,7.8-8c1.9-3.4,2.8-7.2,2.8-11.5
		c0-4.3-0.9-8.2-2.8-11.6c-1.9-3.4-4.5-6.1-7.8-8c-3.3-1.9-7-2.9-11.2-2.9C313.9,44.3,310.2,45.3,306.9,47.2z"/>
</g>
<g>
	<linearGradient id="SVGID_1_" gradientUnits="userSpaceOnUse" x1="726.4866" y1="186.0665" x2="726.4866" y2="468.3019">
		<stop  offset="0.45" style="stop-color:#F99D1C"/>
		<stop  offset="0.8" style="stop-color:#F58220"/>
	</linearGradient>
	<path class="st1" d="M815.6,312l-51.4,0c-9.5,0-18.3,6.4-20.8,16.2c-0.1,0.4-0.2,0.8-0.3,1.3c-2.7,13.3,7.9,25.5,21.5,25.6l4.4,0
		c1.6,0,3,1.3,3,3v23.8c0,4-2.7,7.5-6.6,8.4c-10.7,2.5-22.1,2.5-33.4-0.4c-36.1-9.3-57.5-44.8-47.8-79.4
		c9.7-34.6,46.8-55.1,82.9-45.8c1.5,0.4,2.9,0.8,4.3,1.3l0,0c1.1,0.4,2.2,0.8,3.3,1.1c20.1,5.5,40.8-6.7,46.2-27.1
		c5.4-20.5-6.5-41.5-26.7-47c0,0-0.1,0-0.1,0c-2.1-0.6-4.2-1.3-6.4-1.8c-78.5-20.2-159.3,24.5-180.3,99.8
		c-21,75.3,25.6,152.6,104.1,172.8c43.9,11.3,88.5,2.3,123-21c10.4-7,16.5-18.8,16.5-31.4v-63.5C850.8,328.1,835.1,312.2,815.6,312z
		"/>
	<linearGradient id="SVGID_2_" gradientUnits="userSpaceOnUse" x1="439.9597" y1="188.096" x2="439.9597" y2="466.2724">
		<stop  offset="0.45" style="stop-color:#F99D1C"/>
		<stop  offset="0.8" style="stop-color:#F58220"/>
	</linearGradient>
	<path class="st2" d="M572.3,234.1c-0.9-5.1-2.4-10.2-4.7-14.9c-11.5-23.4-38-36.2-63.8-29.2c-18.7,5.1-32.7,19.4-38.3,36.9
		l-22.4,68c-0.9,2.8-5,2.8-5.9,0l-22.4-68c-5.6-17.5-19.5-31.8-38.3-36.9c-25.8-7-52.3,5.7-63.8,29.2c-2.3,4.7-3.8,9.7-4.7,14.9
		l-32,175.5c-6.3,24,7.7,48.7,31.3,55.1c23.6,6.4,47.9-7.8,54.2-31.8l9.5-55.1c0.5-3.2,5-3.5,6-0.4l17.4,55
		c6.5,19.5,24.7,33.7,46,33.8c8.1,0,15.8-2,22.5-5.5c11.1-5.9,19.1-16.1,22.9-28l17.6-55.3c1-3.1,5.5-2.8,6,0.4l9.5,55.1
		c6.3,24,30.6,38.3,54.2,31.8c23.6-6.4,36.6-30.4,31.3-55.1L572.3,234.1z"/>
	<linearGradient id="SVGID_3_" gradientUnits="userSpaceOnUse" x1="442.7543" y1="162.8207" x2="442.7543" y2="491.5472">
		<stop  offset="0.45" style="stop-color:#F99D1C"/>
		<stop  offset="0.8" style="stop-color:#F58220"/>
	</linearGradient>
	<path class="st3" d="M815.9,288.7L815.9,288.7l-0.2,0c-2.9,0-3.9-3.9-1.4-5.3c13.9-8,24.5-21.4,28.9-37.8
		c8.6-32.7-10.7-66.5-43-75.3c-2.5-0.8-4.8-1.4-6.9-1.9c-14.4-3.7-29.2-5.6-44-5.6c-61.2,0-116.5,31.7-146.6,80.7
		c-1.4,2.2-4.7,1.6-5.2-1l-2.3-12.7c-1.4-7.6-3.7-14.7-6.7-21c-13.2-26.8-40.8-44.1-70.3-44.1c-6.9,0-13.8,0.9-20.5,2.8
		c-25.7,7-46,26.5-54.3,52.1l-0.5,1.6c-0.9,2.6-4.5,2.6-5.4,0l-0.5-1.6c-8.3-25.6-28.6-45.1-54.3-52.1c-6.7-1.8-13.6-2.8-20.5-2.8
		c-29.6,0-57.2,17.3-70.3,44.1c-3.1,6.3-5.4,13.3-6.7,21l-9.7,53.4c-0.4,2.1-3,3-4.5,1.5c-0.6-0.6-0.9-1.5-0.8-2.3
		c0.6-4.7,1-9.4,1-14.2c0-57-47.8-103.6-104.8-103.6H61.9c-27.8,0-50.4,22.6-50.4,50.4v224c0,27.8,22.6,50.4,50.4,50.4
		c0,0,128.8,0.1,128.8,0.1c25.2,0,49-9.2,67.5-25.9l2.2-2.1c1.2-1.2,3.2-1,4.2,0.4c8.9,12.1,21.6,21,36.5,25.1
		c5.8,1.6,11.7,2.4,17.6,2.4c23.7,0,45.2-12.6,57.3-32.2c1.1-1.7,3.6-1.8,4.7-0.1c13.1,19.7,35.2,32.1,59.4,32.2l0.4,0
		c11.5,0,23-2.9,33.2-8.3c10.6-5.6,19.4-13.8,25.9-23.8c1.1-1.7,3.7-1.7,4.8,0.1c12.1,19.6,33.5,32.1,57.2,32.1
		c5.9,0,11.8-0.8,17.6-2.4c22-6,38.3-22,45.5-42.2c0.7-1.9,3.1-2.5,4.6-1.1c20.9,20.1,47,34.6,76.3,42.1c14.4,3.7,29.2,5.6,44,5.6
		c35.1,0,68.9-10.3,97.8-29.8c16.8-11.3,26.8-30.3,26.8-50.7v-63.4C874.1,315.7,847.9,289.2,815.9,288.7z M860.5,411.1
		c0,15.9-7.8,30.6-20.8,39.4c-26.6,18-57.8,27.5-90.2,27.5c-13.6,0-27.3-1.7-40.6-5.1c-39-10-71.6-33.3-92.8-66.1
		c-0.8-1.2-2.6-0.5-2.4,0.9c6.4,30.1-10,58.7-38.2,66.3c-4.6,1.3-9.3,1.9-14,1.9c0,0,0,0,0,0c-24.4,0-45.8-16.7-52.1-40.6l-0.1-0.4
		l-4.1-23.7c-0.2-1.3-2.1-1.5-2.5-0.2l-7.8,24.5c-4.7,14.7-14.5,26.7-27.6,33.6c-8.2,4.4-17.5,6.7-26.8,6.7l-0.3,0
		c-25-0.1-47.2-16.4-55.2-40.4l-7.6-24.2c-0.4-1.3-2.3-1.2-2.5,0.2l-4,23.5l-0.1,0.4c-6.3,23.9-27.7,40.6-52.1,40.6h0
		c-4.7,0-9.4-0.6-14-1.9c-18.5-5-32.2-19.4-37.5-36.7c-0.5-1.7-2.7-1.9-3.6-0.5c-3.2,4.8-6.9,9.4-11.1,13.6
		c-16.5,16.5-38.4,25.6-61.8,25.6c0,0-128.8-0.1-128.8-0.1C41.5,476,25,459.5,25,439.2v-224c0-20.4,16.5-36.9,36.9-36.9h104.4
		c49.9,0,91.2,40.1,91.2,90c0,17.6-5,34.4-14.4,49c-0.4,0.6-0.2,1.3,0.3,1.7c13.7,10.4,23.9,24.3,29.6,40.1c0.4,1.2,2.2,1.1,2.5-0.2
		l23.1-126.6c1.2-6.4,3-12.2,5.6-17.4c10.9-22.2,33.7-36.5,58.2-36.5c5.7,0,11.4,0.8,16.9,2.3c21.3,5.8,38.1,22,45,43.2l12.1,36.7
		c1.3,3.9,6.8,3.9,8.1,0l12.1-36.7c6.9-21.2,23.7-37.4,44.9-43.2c5.5-1.5,11.2-2.3,16.9-2.3c24.4,0,47.3,14.3,58.2,36.5
		c2.5,5.2,4.4,11,5.6,17.4l10.1,55.6c0.6,3.1,5,3.3,5.9,0.3l0-0.1c18.4-65.8,80.7-111.7,151.5-111.7c13.6,0,27.3,1.7,40.6,5.1
		c2,0.5,4.2,1.1,6.6,1.8c0,0,0,0,0.1,0c25.2,6.9,40.3,33.3,33.5,58.8c-5.5,21-24.4,35.7-45.8,35.7c-2.7,0-5.4-0.2-8-0.7l-4.6-1
		c-1.2-0.3-2.3-0.7-3.6-1.2c-1.4-0.4-2.5-0.8-3.6-1.1c-5-1.3-10.1-1.9-15.1-1.9c-26.2,0-49.2,16.9-56,41c-3.8,13.8-2,28.2,5.2,40.7
		c7.7,13.3,20.4,22.8,35.7,26.7c5,1.3,10,1.9,15.1,1.9c2.7,0,5.3-0.2,8-0.5c2.8-0.4,4.8-2.8,4.8-5.6v-6.8c0-2.6-1.8-4.9-4.3-5.5
		c-7-1.5-13.3-5.3-17.9-11c-5.9-7.2-8.2-16.5-6.4-25.5c0.1-0.6,0.3-1.2,0.4-1.8c3.6-13.8,16-23.4,30.1-23.4l51.5,0
		c24.7,0.3,44.8,20.6,44.8,45.3V411.1z M721.5,336.8c0.5,3.4,1.3,6.9,2.6,10.3c1.3,3.4,2.9,6.8,4.9,10.2l0.1,0.2
		c1.1,1.9,0.5,4.3-1.4,5.4c-1.3,0.8-2.8,0.7-4,0c-8.1-4.8-14.2-13.2-17-22.7c-1.4-4.7-2.1-9.8-1.8-14.8c0.2-5,1.3-10,3.2-14.7
		c3.6-9.3,10.3-17.5,18.6-22.7c8.4-5.2,18.3-7.5,27.5-6.1c2.2,0.3,3.6,2.3,3.3,4.5c-0.2,1.6-1.4,2.8-2.9,3.2l-0.2,0
		c-7.5,2.1-14.2,5.4-19.4,10.1c-5.2,4.7-9.2,10.4-11.5,16.9c-1.2,3.2-1.9,6.5-2.2,9.9C721,329.9,721.1,333.4,721.5,336.8z"/>
	<linearGradient id="SVGID_4_" gradientUnits="userSpaceOnUse" x1="151.5027" y1="187.9739" x2="151.5027" y2="466.3945">
		<stop  offset="0.45" style="stop-color:#F99D1C"/>
		<stop  offset="0.8" style="stop-color:#F58220"/>
	</linearGradient>
	<path class="st4" d="M232.3,323.2c-2.1-1.3-2.6-4.1-1.1-6.1c10.3-13.5,16.5-30.4,16.5-48.8c0-44.4-36-80.4-80.4-80.4H61.9
		c-15,0-27.2,12.2-27.2,27.2v224c0,15,12.2,27.2,27.2,27.2l128.8,0.1c42.9,0,77.7-34.8,77.7-77.7v0C268.3,361.2,254,337,232.3,323.2
		z M161.3,391.8c-3.3,3.6-8,5.7-12.9,5.7h-18.7c-2.8,0-5.1-2.3-5.1-5.1v-24.8c0-2.8,2.3-5.1,5.1-5.1h18.2c9.2,0,17,6.9,17.9,15.8
		C166.3,383.3,164.6,388.2,161.3,391.8z M161.3,284.9c-3.3,3.6-8,5.7-12.9,5.7h-18.7c-2.8,0-5.1-2.3-5.1-5.1v-24.8
		c0-2.8,2.3-5.1,5.1-5.1h18.2c9.2,0,17,6.9,17.9,15.8C166.3,276.4,164.6,281.3,161.3,284.9z"/>
</g>
</svg>
